<svg width="12" height="12" viewBox="0 0 12 12" fill="none" xmlns="http://www.w3.org/2000/svg">
    <path d="M10.643 6a4.643 4.643 0 1 1-9.286 0 4.643 4.643 0 0 1 9.286 0z" stroke="#8F8F8F" stroke-linecap="round" stroke-linejoin="round"/>
    <path fill-rule="evenodd" clip-rule="evenodd" d="M6.13 4.012a1 1 0 0 0-1.113.654.5.5 0 0 1-.944-.332 2 2 0 0 1 3.887.667c0 .765-.567 1.27-.973 1.54a4.023 4.023 0 0 1-.843.424l-.017.006-.005.002H6.12s-.002.001-.16-.473l.16.474a.501.501 0 0 1-.319-.948l.008-.003.038-.014a3.026 3.026 0 0 0 .586-.3c.345-.23.527-.474.527-.709a1.002 1.002 0 0 0-.83-.988zM5.5 8.5A.5.5 0 0 1 6 8h.005a.5.5 0 0 1 0 1H6a.5.5 0 0 1-.5-.5z" fill="#8F8F8F"/>
</svg>
