<svg width="20" height="20" viewBox="0 0 20 20" fill="none" xmlns="http://www.w3.org/2000/svg">
    <path d="M16.222 2H3.778C2.796 2 2 2.796 2 3.778v12.444C2 17.204 2.796 18 3.778 18h12.444c.982 0 1.778-.796 1.778-1.778V3.778C18 2.796 17.204 2 16.222 2z" fill="#531177"/>
    <path fill-rule="evenodd" clip-rule="evenodd" d="M14.261 7.416a.833.833 0 0 1-.01 1.179l-4.584 4.5a.833.833 0 0 1-1.167 0l-2.084-2.046a.833.833 0 1 1 1.168-1.19l1.5 1.473 3.999-3.927a.833.833 0 0 1 1.178.011z" fill="#fff"/>
</svg>
