<svg width="16" height="16" viewBox="0 0 16 16" fill="none" xmlns="http://www.w3.org/2000/svg">
    <circle cx="8" cy="8" r="7" fill="#531177"/>
    <path d="M6.667 8C4.577 8 3 7.213 3 6.167 3 5.12 4.577 4.333 6.667 4.333s3.666.787 3.666 1.834C10.333 7.213 8.757 8 6.667 8zm0-3c-1.717 0-3 .617-3 1.167s1.283 1.166 3 1.166c1.716 0 3-.616 3-1.166 0-.55-1.284-1.167-3-1.167z" fill="#fff"/>
    <path d="M6.667 9.667C4.577 9.667 3 8.88 3 7.833V6.167a.333.333 0 1 1 .667 0v1.666c0 .55 1.283 1.167 3 1.167 1.716 0 3-.617 3-1.167V6.167a.333.333 0 1 1 .666 0v1.666c0 1.047-1.576 1.834-3.666 1.834z" fill="#fff"/>
    <path d="M5.333 9.54A.333.333 0 0 1 5 9.207V7.54a.333.333 0 0 1 .667 0v1.667a.333.333 0 0 1-.334.333zM9.333 10a6.713 6.713 0 0 1-2.263-.37.334.334 0 0 1 .233-.627c.652.227 1.34.339 2.03.33 1.717 0 3-.617 3-1.167 0-.443-.903-1-2.363-1.14a.334.334 0 0 1 .06-.667c1.776.167 2.97.89 2.97 1.804 0 1.05-1.577 1.836-3.667 1.836z" fill="#fff"/>
    <path d="M9.333 11.667c-2.09 0-3.667-.787-3.667-1.834v-.53a.333.333 0 0 1 .667 0v.53c0 .55 1.284 1.167 3 1.167 1.717 0 3-.617 3-1.167V8.167a.333.333 0 1 1 .667 0v1.666c0 1.047-1.577 1.834-3.667 1.834z" fill="#fff"/>
    <path d="M10.667 11.54a.333.333 0 0 1-.333-.333V9.54a.333.333 0 1 1 .666 0v1.667a.333.333 0 0 1-.333.333zM8 11.54a.333.333 0 0 1-.333-.333V7.54a.333.333 0 0 1 .666 0v3.667A.333.333 0 0 1 8 11.54z" fill="#fff"/>
</svg>
