<svg width="48" height="39" viewBox="0 0 48 39" fill="none" xmlns="http://www.w3.org/2000/svg">
    <path d="M48 11.088v26.904H11.504c-.61 0-1.107-.492-1.107-1.096V7.38c0-.604.497-1.096 1.107-1.096h13.416c.29 0 .572.111.778.325l3.094 3.067c.206.204.487.325.778.325h17.326A1.09 1.09 0 0 1 48 11.088z" fill="#531177"/>
    <path d="M36.721 24.247 48 38.002H10.92a1.11 1.11 0 0 1-.862-.41L.252 25.633c-.59-.715-.075-1.784.853-1.784h34.754c.337 0 .656.149.862.4z" fill="#EEDAFA"/>
    <path d="M14.277 24.06a.719.719 0 0 1-.722-.715v-.957c0-.4.328-.716.722-.716.394 0 .722.325.722.716v.957a.713.713 0 0 1-.722.716zM14.277 20.397a.719.719 0 0 1-.722-.716v-1.803c0-.4.328-.715.722-.715.394 0 .722.325.722.715v1.803c.01.4-.319.716-.722.716zm0-4.498a.719.719 0 0 1-.722-.715V13.38c0-.4.328-.716.722-.716.394 0 .722.325.722.716v1.803a.713.713 0 0 1-.722.715zm0-4.507a.719.719 0 0 1-.722-.716V8.873c0-.4.328-.715.722-.715.394 0 .722.325.722.715v1.803c.01.4-.319.716-.722.716zm0-4.498a.719.719 0 0 1-.722-.716V4.375c0-.4.328-.715.722-.715.394 0 .722.325.722.715v1.803a.713.713 0 0 1-.722.716zM14.278 2.398a.719.719 0 0 1-.722-.716V.716c0-.4.328-.716.722-.716h.966a.72.72 0 0 1 .722.716c0 .39-.329.715-.722.715H15v.242c.01.4-.319.725-.722.725zM39.065 1.439h-1.903a.72.72 0 0 1-.722-.716c0-.39.328-.715.722-.715h1.903a.72.72 0 0 1 .722.715.72.72 0 0 1-.722.716zm-4.762 0H32.4a.719.719 0 0 1-.722-.716c0-.39.328-.715.722-.715h1.903c.403 0 .722.325.722.715 0 .39-.32.716-.722.716zm-4.763 0h-1.903a.72.72 0 0 1-.722-.716c0-.39.328-.715.722-.715h1.903a.72.72 0 0 1 .722.715.72.72 0 0 1-.722.716zm-4.763 0h-1.903a.719.719 0 0 1-.722-.716c0-.39.328-.715.722-.715h1.903a.72.72 0 0 1 .722.715c0 .39-.328.716-.722.716zm-4.762 0H18.11a.72.72 0 0 1-.721-.716c0-.39.328-.715.721-.715h1.904c.403 0 .722.325.722.715 0 .39-.328.716-.722.716zM42.89 2.398a.72.72 0 0 1-.722-.716V1.44h-.243a.72.72 0 0 1-.722-.715c0-.39.328-.725.721-.725h.966a.72.72 0 0 1 .722.716v.957c.01.4-.319.725-.722.725zM42.89 27.025a.719.719 0 0 1-.721-.716v-1.97c0-.4.328-.716.721-.716.394 0 .722.325.722.716v1.97a.713.713 0 0 1-.722.716zm0-4.926a.719.719 0 0 1-.721-.715v-1.97c0-.4.328-.716.721-.716.394 0 .722.325.722.715v1.961c.01.4-.319.725-.722.725zm0-4.925a.719.719 0 0 1-.721-.716v-1.97c0-.4.328-.715.721-.715.394 0 .722.325.722.715v1.96c.01.4-.319.726-.722.726zm0-4.926a.719.719 0 0 1-.721-.715v-1.97c0-.4.328-.716.721-.716.394 0 .722.325.722.716v1.96c.01.4-.319.725-.722.725zm0-4.925a.719.719 0 0 1-.721-.716v-1.98c0-.399.328-.715.721-.715.394 0 .722.326.722.716v1.97c.01.4-.319.725-.722.725zM42.89 30.937a.719.719 0 0 1-.721-.715v-.957c0-.4.328-.716.721-.716.394 0 .722.325.722.716v.957a.713.713 0 0 1-.722.715z" fill="#DBDBDB"/>
</svg>
