<svg width="122" height="125" viewBox="0 0 122 125" fill="none" xmlns="http://www.w3.org/2000/svg">
    <path d="M94.754 30.303c-.618-.626-1.235-1.301-1.852-1.88-3.515-3.373-7.457-6.313-11.732-8.675a53.09 53.09 0 0 0-8.597-3.808l-1.282-.434A54.146 54.146 0 0 0 54.953 13c-.713 0-1.425 0-2.09.048h-.333c-.712.048-1.425.097-2.09.145h-.142C22.133 15.603 0 39.606 0 68.813c0 16.918 7.41 32.101 19.14 42.367 9.642 8.386 22.181 6.169 35.86 6.169 2.945 0 5.842.097 8.644.193-5.414 3.085-11.399 5.302-17.763 6.362 2.992.482 6.032-1.012 9.119-1.012 13.679 0 26.218-3.277 35.86-11.712.712-.627 1.472-1.301 2.136-1.976C103.493 99.034 110 84.719 110 68.814c-.047-14.942-5.842-28.486-15.246-38.51z" fill="#F7F8F9"/>
    <path d="M91 111.416a16.914 16.914 0 0 0-.19-1.536c0-.096-.048-.24-.048-.336-.048-.48-.144-.96-.239-1.488 0-.096-.047-.192-.047-.24-.096-.432-.191-.816-.239-1.248-.048-.144-.048-.288-.095-.384-.096-.432-.239-.912-.334-1.344-.048-.144-.095-.336-.143-.48-.096-.336-.19-.624-.286-.96-.048-.192-.096-.336-.143-.528l-.43-1.152c-.095-.192-.142-.432-.238-.624-.095-.24-.19-.432-.286-.672-.143-.384-.334-.72-.477-1.056a4.689 4.689 0 0 1-.238-.528c-.143-.24-.238-.48-.382-.72-.047-.144-.143-.288-.19-.384l-.716-1.296c-.047-.096-.143-.24-.19-.336-.143-.24-.334-.528-.477-.768A36.043 36.043 0 0 0 72.499 83c-4.243 4.896-10.442 7.968-17.404 7.968-.477 0-.906 0-1.382-.048-.144 0-.287 0-.43-.048-.333-.048-.62-.048-.953-.096-.143 0-.286-.048-.43-.048l-1-.144c-.096 0-.24-.048-.334-.048-.43-.096-.906-.192-1.336-.288h-.047a9.373 9.373 0 0 1-1.24-.384c-.095-.048-.19-.048-.286-.096-.334-.096-.668-.24-1.001-.336-.096-.048-.191-.096-.286-.096a10.88 10.88 0 0 1-1.097-.48c-.048 0-.096-.048-.143-.048-2.909-1.392-5.436-3.36-7.534-5.76C27.344 88.712 20.096 99.272 19 111.56c9.107 7.872 20.837 12.864 33.664 13.392h.143c.333 0 .667.048 1.001.048H55c13.78-.144 26.368-5.232 36-13.584z" fill="#9EA4AA"/>
    <path d="M74 58.255C73.478 48.093 65.176 40 55.024 40c-.38 0-.76 0-1.139.048-.095 0-.237 0-.332.048-.285 0-.522.049-.806.097-.143 0-.238.048-.38.048-.285.048-.57.096-.806.144-.095 0-.19.049-.285.049-.38.096-.712.144-1.091.24-.332.097-.712.193-1.044.29-.095.047-.142.047-.237.096-.285.096-.522.192-.807.289-.095.048-.142.048-.237.096-.285.145-.617.24-.901.385-.048 0-.048.049-.095.049C40.459 44.96 36 51.609 36 59.315v7.37c0 7.707 4.46 14.354 10.864 17.436.047 0 .047.049.095.049.284.144.57.289.901.385.095.048.142.048.237.096.285.097.522.193.807.29.095.047.142.047.237.096.332.096.664.192 1.044.289.38.096.711.192 1.09.24.096 0 .19.049.285.049.285.048.522.096.807.144.142 0 .237.048.38.048.284.049.521.049.806.097.095 0 .237 0 .332.048.38 0 .76.048 1.139.048C65.508 86 74 77.378 74 66.733v-8.478z" fill="#9EA4AA"/>
    <path d="M119.321 1.74a7.16 7.16 0 0 0-1.167-.83 6.467 6.467 0 0 0-.638-.317A6.882 6.882 0 0 0 114.673 0H85.327C81.281 0 78 3.441 78 7.674v20.43c0 4.233 3.28 7.674 7.327 7.674h2.443v7.674c0 1.028.601 1.958 1.513 2.353.893.396 1.95.178 2.66-.554L100 36.846l1.021-1.048h13.652a7.212 7.212 0 0 0 3.481-.91 7.167 7.167 0 0 0 1.167-.83A7.831 7.831 0 0 0 122 28.143V7.654c-.018-2.373-1.057-4.51-2.679-5.914z" fill="#531177"/>
    <path d="M109.152 11.885c-1.151-1.18-3.003-1.18-4.134 0l-3.783 3.878-2.925 3-2.32-2.38c-1.151-1.18-3.003-1.18-4.134 0-1.131 1.18-1.15 3.08 0 4.239l4.387 4.498c.566.58 1.326.88 2.067.88.74 0 1.501-.3 2.067-.88l.858-.88 7.917-8.117c1.131-1.16 1.131-3.059 0-4.238z" fill="#F9F4F3"/>
</svg>
