<svg width="18" height="20" viewBox="0 0 18 20" fill="none" xmlns="http://www.w3.org/2000/svg">
    <path d="M18 1.764C18 .793 17.149 0 16.107 0H1.893C.851 0 0 .793 0 1.764v16.472C0 19.207.851 20 1.893 20H12.63l5.365-4.706L18 1.764z" fill="#E4C3F6"/>
    <path d="M14.63 15.417h3.365l-5.2 4.582v-2.864c0-.946.824-1.718 1.834-1.718z" fill="#F5F5F5"/>
    <path d="M5.143 8.112h8.26c.251 0 .46-.19.46-.431 0-.235-.203-.43-.46-.43h-8.26c-.251 0-.46.19-.46.43s.209.43.46.43zM5.143 5.247h8.26c.251 0 .46-.19.46-.43 0-.236-.203-.432-.46-.432h-8.26c-.251 0-.46.19-.46.431 0 .24.209.431.46.431zM5.143 10.977h8.26c.251 0 .46-.19.46-.43 0-.236-.203-.431-.46-.431h-8.26c-.251 0-.46.19-.46.43 0 .241.209.431.46.431zM5.143 13.84h4.59c.251 0 .46-.19.46-.431 0-.235-.203-.431-.46-.431h-4.59c-.251 0-.46.19-.46.43 0 .241.209.432.46.432z" fill="#FAFAFA"/>
</svg>
