<svg width="16" height="16" viewBox="0 0 16 16" fill="none" xmlns="http://www.w3.org/2000/svg">
    <circle cx="8" cy="8" r="7" fill="#531177"/>
    <path d="M8 9.2a7.08 7.08 0 0 1-2.884-.556c-.85-.393-1.318-.945-1.318-1.546 0-.6.469-1.152 1.318-1.545A7.08 7.08 0 0 1 8 4.997a7.08 7.08 0 0 1 2.884.556c.85.393 1.318.945 1.318 1.545s-.468 1.153-1.318 1.546A7.08 7.08 0 0 1 8 9.199zm0-3.602c-.903-.02-1.8.15-2.632.5-.6.283-.97.65-.97 1C4.399 7.807 5.879 8.6 8 8.6c.903.02 1.8-.15 2.632-.501.616-.282.97-.648.97-1 0-.708-1.48-1.5-3.602-1.5z" fill="#fff"/>
    <path d="M8 11a.3.3 0 0 1-.3-.3V8.9a.3.3 0 1 1 .6 0v1.8a.3.3 0 0 1-.3.3z" fill="#fff"/>
    <path d="M8 11c-2.4 0-4.202-.9-4.202-2.101v-1.8a.3.3 0 0 1 .6 0v1.8c0 .63 1.252 1.5 3.602 1.5 2.35 0 3.602-.87 3.602-1.5v-1.8a.3.3 0 1 1 .6 0v1.8c0 1.2-1.807 2.1-4.202 2.1z" fill="#fff"/>
    <path d="M10.401 10.629a.3.3 0 0 1-.3-.3V8.528a.3.3 0 1 1 .6 0v1.8a.3.3 0 0 1-.3.3zM5.6 10.629a.3.3 0 0 1-.3-.3V8.528a.3.3 0 1 1 .6 0v1.8a.3.3 0 0 1-.3.3z" fill="#fff"/>
</svg>
