<svg width="41" height="38" viewBox="0 0 41 38" fill="none" xmlns="http://www.w3.org/2000/svg">
    <path opacity=".5" d="M21.473 17.865V3.621L16.416.597c-1.323-.796-2.879-.796-4.202 0L7.157 3.62 2.101 6.565A4.36 4.36 0 0 0 0 10.305v9.311a4.36 4.36 0 0 0 2.1 3.74l5.057 2.945 14.316-8.436z" fill="#fff"/>
    <path d="m7.157 12.054-6.612-3.9C.233 8.793 0 9.509 0 10.305v9.31a4.36 4.36 0 0 0 2.1 3.74L7.158 26.3V12.054z" fill="#fff"/>
    <path opacity=".5" d="M31.198 23.675V3.7L26.141.676c-1.322-.795-2.878-.795-4.201 0L16.883 3.7l-5.057 3.024c-1.322.796-2.1 2.149-2.1 3.74v15.04a4.36 4.36 0 0 0 2.1 3.741l5.057 3.024 14.315-8.594z" fill="#fff"/>
    <path d="m16.883 12.134-6.613-3.9c-.389.637-.544 1.353-.544 2.15v15.04a4.36 4.36 0 0 0 2.1 3.74l5.057 3.024V12.134z" fill="#fff"/>
    <path opacity=".5" d="M41 29.404V3.7L35.943.676c-1.323-.795-2.879-.795-4.201 0L26.685 3.7l-5.057 3.024c-1.323.796-2.1 2.149-2.1 3.74v20.77a4.36 4.36 0 0 0 2.1 3.74L26.685 38 41 29.404z" fill="#fff"/>
    <path d="m26.685 12.134-6.613-3.9c-.39.637-.545 1.353-.545 2.15v20.77a4.36 4.36 0 0 0 2.1 3.74l5.058 3.023V12.134z" fill="#fff"/>
</svg>
