<svg width="71" height="20" viewBox="0 0 71 20" fill="none" xmlns="http://www.w3.org/2000/svg">
    <path d="M32.325 6.134v4.777c0 2.105-1.705 3.806-3.767 3.806s-3.727-1.7-3.767-3.806V6.134c0-.527.397-.931.912-.931.516 0 .912.404.912.93v4.778c0 1.093.873 1.984 1.903 1.984 1.07 0 1.943-.89 1.943-1.984V6.134c0-.527.397-.931.912-.931.515.04.952.445.952.93zM35.298 13.826v4.737c0 .526-.396.93-.912.93-.515 0-.911-.404-.911-.93V10.06c0-2.632 2.101-4.778 4.678-4.778s4.679 2.146 4.679 4.778c0 2.631-2.062 4.777-4.679 4.777-1.11-.04-2.101-.405-2.855-1.012zm0-3.806c0 1.58 1.27 2.875 2.815 2.875 1.547 0 2.816-1.296 2.816-2.875s-1.27-2.874-2.816-2.874c-1.546 0-2.815 1.295-2.815 2.874zM48.937 6.134c0 .526-.396.93-.911.93H46.4v6.68c0 .527-.397.932-.912.932-.516 0-.912-.405-.912-.931v-6.68h-1.03c-.516 0-.913-.405-.913-.931 0-.527.397-.932.912-.932h1.031c0-1.336.476-2.59 1.348-3.481A4.513 4.513 0 0 1 47.67.587c.475-.202.99.081 1.19.567a.986.986 0 0 1-.556 1.214c-.396.122-.753.365-1.07.689-.556.566-.833 1.295-.833 2.145h1.626c.515 0 .911.405.911.932zM50.008 13.786V1.437c0-.526.396-.93.912-.93.515 0 .912.404.912.93v12.349c0 .526-.397.93-.912.93-.516.041-.912-.404-.912-.93zM62.298 9.98c0 .526-.396.931-.912.931h-6.422c.396 1.134 1.427 1.943 2.656 1.943.436 0 1.19-.04 2.062-.607.436-.283.99 0 1.229.445.238.486 0 .972-.436 1.255-1.23.85-2.181.81-2.855.81-2.577 0-4.679-2.146-4.679-4.777 0-2.632 2.062-4.777 4.679-4.777 2.26 0 4.678 1.66 4.678 4.777zm-7.334-.972h5.352c-.397-1.336-1.586-1.943-2.696-1.943-1.23 0-2.26.85-2.656 1.943zM70.625 13.22c.317.404.237 1.012-.159 1.295a.935.935 0 0 1-.555.202.842.842 0 0 1-.714-.364l-2.18-2.874-2.181 2.874c-.198.243-.436.364-.714.364a.935.935 0 0 1-.555-.202c-.396-.283-.476-.89-.158-1.296l2.458-3.238-2.458-3.24c-.318-.404-.238-1.011.158-1.335.397-.324.952-.243 1.269.162l2.18 2.874 2.181-2.874c.317-.405.873-.486 1.269-.162.397.324.476.89.159 1.336L68.166 9.98l2.459 3.238z" fill="#000"/>
    <path opacity=".5" d="M10.943 9.453V2.206L8.366.667a2.039 2.039 0 0 0-2.141 0L3.648 2.206 1.07 3.704A2.218 2.218 0 0 0 0 5.606v4.737c0 .77.396 1.498 1.07 1.903l2.578 1.498 7.295-4.291z" fill="#531177"/>
    <path d="M3.648 6.497.278 4.513A2.473 2.473 0 0 0 0 5.607v4.736c0 .77.396 1.498 1.07 1.903l2.578 1.498V6.497z" fill="#531177"/>
    <path opacity=".5" d="M15.899 12.408V2.246L13.322.708a2.039 2.039 0 0 0-2.141 0L8.604 2.246 6.027 3.785a2.169 2.169 0 0 0-1.07 1.902v7.652c0 .77.396 1.498 1.07 1.903l2.577 1.538 7.295-4.372z" fill="#531177"/>
    <path d="m8.604 6.538-3.37-1.984c-.199.324-.278.688-.278 1.093V13.3c0 .77.397 1.498 1.07 1.903l2.578 1.538V6.538z" fill="#531177"/>
    <path opacity=".5" d="M20.895 15.323V2.246L18.317.708a2.039 2.039 0 0 0-2.14 0l-2.578 1.538-2.577 1.539a2.169 2.169 0 0 0-1.07 1.902v10.567c0 .77.396 1.498 1.07 1.903l2.577 1.538 7.296-4.372z" fill="#531177"/>
    <path d="m13.6 6.538-3.37-1.984c-.199.324-.278.688-.278 1.093v10.567c0 .77.396 1.498 1.07 1.903l2.577 1.538V6.538z" fill="#531177"/>
</svg>
