<svg width="138" height="38" viewBox="0 0 138 38" fill="none" xmlns="http://www.w3.org/2000/svg">
    <path d="M62.662 11.654v9.077c0 4-3.305 7.231-7.301 7.231-3.997 0-7.225-3.23-7.302-7.23v-9.078c0-1 .769-1.769 1.768-1.769s1.768.77 1.768 1.77v9.076c0 2.077 1.69 3.77 3.689 3.77a3.774 3.774 0 0 0 3.766-3.77v-9.077c0-1 .769-1.769 1.768-1.769.999.077 1.844.846 1.844 1.77zM68.427 26.27v9c0 1-.769 1.769-1.768 1.769-1 0-1.768-.77-1.768-1.77V19.117c0-5 4.074-9.077 9.07-9.077 4.995 0 9.069 4.077 9.069 9.077s-3.997 9.077-9.07 9.077c-2.152-.077-4.073-.77-5.533-1.923zm0-7.231c0 3 2.46 5.461 5.457 5.461s5.457-2.461 5.457-5.461c0-3-2.46-5.462-5.457-5.462-2.998 0-5.457 2.462-5.457 5.462zM94.866 11.654c0 1-.769 1.77-1.768 1.77h-3.15v12.692c0 1-.77 1.769-1.769 1.769-.999 0-1.767-.77-1.767-1.77V13.424h-1.999c-.999 0-1.767-.769-1.767-1.769 0-1 .768-1.77 1.767-1.77h1.999c0-2.538.922-4.922 2.613-6.614.999-1 2.075-1.693 3.382-2.154.922-.385 1.921.154 2.305 1.077.308.923-.153 1.923-1.076 2.307-.768.231-1.46.693-2.075 1.308-1.076 1.077-1.614 2.462-1.614 4.077h3.151c1 0 1.768.77 1.768 1.77zM96.941 26.193V2.73c0-1 .769-1.769 1.768-1.769 1 0 1.768.77 1.768 1.77v23.46c0 1-.769 1.77-1.768 1.77-.999.077-1.768-.77-1.768-1.77zM120.767 18.962c0 1-.768 1.77-1.767 1.77h-12.452c.769 2.153 2.767 3.692 5.15 3.692.845 0 2.306-.077 3.997-1.154.845-.539 1.921 0 2.382.846.461.923 0 1.846-.845 2.384-2.383 1.616-4.227 1.539-5.534 1.539-4.996 0-9.069-4.077-9.069-9.077s3.996-9.077 9.069-9.077c4.381 0 9.069 3.154 9.069 9.077zm-14.219-1.846h10.376c-.768-2.539-3.074-3.692-5.226-3.692-2.383 0-4.381 1.615-5.15 3.692zM136.908 25.117c.615.77.461 1.923-.308 2.461-.307.231-.691.385-1.076.385-.538 0-1.076-.23-1.383-.692l-4.227-5.462-4.228 5.462c-.384.461-.845.692-1.383.692-.384 0-.769-.154-1.076-.385-.769-.538-.922-1.692-.308-2.461l4.766-6.154-4.766-6.154c-.614-.769-.461-1.923.308-2.538.768-.616 1.844-.462 2.459.307l4.228 5.462 4.227-5.461c.615-.77 1.691-.924 2.459-.308.769.615.923 1.692.308 2.538l-4.765 6.154 4.765 6.154z" fill="#fff"/>
    <path opacity=".5" d="M21.213 17.961V4.191L16.217 1.27a4.02 4.02 0 0 0-4.15 0L7.07 4.192 2.075 7.038A4.196 4.196 0 0 0 0 10.653v9c0 1.462.769 2.847 2.075 3.616l4.996 2.846 14.142-8.154z" fill="#fff"/>
    <path d="M7.071 12.346.538 8.576C.231 9.193 0 9.885 0 10.654v9c0 1.462.769 2.847 2.075 3.616l4.996 2.846v-13.77z" fill="#fff"/>
    <path opacity=".5" d="M30.82 23.576V4.27l-4.996-2.923a4.02 4.02 0 0 0-4.15 0l-4.996 2.923-4.996 2.923c-1.306.769-2.075 2.077-2.075 3.615v14.539c0 1.461.769 2.846 2.075 3.615l4.996 2.923 14.142-8.308z" fill="#fff"/>
    <path d="m16.678 12.423-6.533-3.77c-.384.616-.538 1.308-.538 2.077V25.27c0 1.461.769 2.846 2.075 3.615l4.996 2.923V12.423z" fill="#fff"/>
    <path opacity=".5" d="M40.505 29.115V4.269l-4.996-2.923a4.02 4.02 0 0 0-4.15 0l-4.997 2.923-4.995 2.923c-1.307.769-2.076 2.077-2.076 3.615v20.077c0 1.462.77 2.846 2.076 3.615l4.995 2.923 14.143-8.307z" fill="#fff"/>
    <path d="m26.363 12.423-6.534-3.77c-.384.616-.538 1.308-.538 2.077v20.077c0 1.462.77 2.846 2.076 3.616l4.995 2.923V12.423z" fill="#fff"/>
</svg>
