<svg width="41" height="38" viewBox="0 0 41 38" fill="none" xmlns="http://www.w3.org/2000/svg">
    <path opacity=".5" d="M21.213 17.961V4.191L16.217 1.27a4.02 4.02 0 0 0-4.15 0L7.07 4.192 2.075 7.038A4.196 4.196 0 0 0 0 10.653v9c0 1.462.769 2.847 2.075 3.616l4.996 2.846 14.142-8.154z" fill="#531177"/>
    <path d="M7.071 12.346.538 8.576C.231 9.193 0 9.885 0 10.654v9c0 1.462.769 2.847 2.075 3.616l4.996 2.846v-13.77z" fill="#531177"/>
    <path opacity=".5" d="M30.82 23.576V4.27l-4.996-2.923a4.02 4.02 0 0 0-4.15 0l-4.996 2.923-4.996 2.923c-1.306.769-2.075 2.077-2.075 3.615v14.539c0 1.461.769 2.846 2.075 3.615l4.996 2.923 14.142-8.308z" fill="#531177"/>
    <path d="m16.678 12.423-6.533-3.77c-.384.616-.538 1.308-.538 2.077V25.27c0 1.461.769 2.846 2.075 3.615l4.996 2.923V12.423z" fill="#531177"/>
    <path opacity=".5" d="M40.505 29.115V4.269l-4.996-2.923a4.02 4.02 0 0 0-4.15 0l-4.997 2.923-4.995 2.923c-1.307.769-2.076 2.077-2.076 3.615v20.077c0 1.462.77 2.846 2.076 3.615l4.995 2.923 14.143-8.307z" fill="#531177"/>
    <path d="m26.363 12.423-6.534-3.77c-.384.616-.538 1.308-.538 2.077v20.077c0 1.462.77 2.846 2.076 3.616l4.995 2.923V12.423z" fill="#531177"/>
</svg>
